<svg width="376" height="274" viewBox="0 0 376 274" fill="none" xmlns="http://www.w3.org/2000/svg">
<g clip-path="url(#clip0_109_241)">
<path d="M219.019 48.303C226.066 48.303 231.779 42.5792 231.779 35.5185C231.779 28.4579 226.066 22.7341 219.019 22.7341C211.972 22.7341 206.26 28.4579 206.26 35.5185C206.26 42.5792 211.972 48.303 219.019 48.303Z" fill="#F2F2F2"/>
<path d="M317.999 238.039C336.965 223.565 346.024 199.244 340.353 176.042C340.212 175.466 340.063 174.89 339.906 174.317C336.147 160.545 326.845 147.455 313.289 143.055C301.906 139.36 289.481 142.201 277.606 140.732C254.295 137.847 236.222 118.949 223.506 99.1623C210.789 79.3755 201.016 57.227 184.119 40.8802C156.266 13.9352 110.831 8.13398 76.2979 25.6731C41.7645 43.2123 19.7671 82.1244 20.7053 120.905C21.6434 159.686 44.621 196.763 77.9902 216.435C90.2487 223.662 104.427 228.781 118.537 226.99C130.78 225.435 141.904 218.844 154.09 216.887C173.249 213.81 192.285 222.49 208.856 232.603C225.426 242.717 241.432 254.705 260.262 259.394C278.547 263.946 301.199 250.86 317.999 238.039Z" fill="#F2F2F2"/>
<path d="M290.75 26.4875C290.335 26.2098 289.914 25.9464 289.498 25.6783C277.48 17.9771 264.599 11.7207 251.12 7.0384L247.995 50.2362H228.182V0.732541C226.935 0.473986 225.678 0.229796 224.422 -3.05176e-05V50.2362H200.877C187.915 50.2362 175.484 45.0772 166.319 35.894C157.154 26.7108 152.005 14.2558 152.005 1.26886C150.743 1.54178 149.491 1.83381 148.239 2.14503V50.2362H129.062L126.085 9.04461C112.234 14.3671 99.0837 21.3665 86.9279 29.887C86.7176 30.0306 86.5074 30.1791 86.3019 30.3227C85.2458 31.0649 84.204 31.8214 83.1671 32.5875V197.387H139.685L138.686 183.526L133.191 107.42H243.861L238.366 183.526L237.367 197.387H293.259V28.1537C292.428 27.5887 291.591 27.0333 290.75 26.4875ZM148.239 94.8513H132.283L129.334 54.0092H148.239V94.8513ZM224.422 94.8513H197.622V94.0421C197.622 93.6531 197.546 93.2679 197.397 92.9086C197.249 92.5493 197.031 92.2229 196.756 91.948C196.481 91.6732 196.155 91.4553 195.796 91.3069C195.437 91.1585 195.053 91.0824 194.664 91.0831H183.014C182.626 91.0829 182.242 91.1594 181.884 91.308C181.525 91.4567 181.2 91.6746 180.925 91.9494C180.651 92.2242 180.433 92.5505 180.285 92.9096C180.137 93.2686 180.06 93.6535 180.061 94.0421V94.8513H152.005V54.0092H224.422V94.8513ZM228.182 94.8513V54.0092H247.723L244.774 94.8513H228.182Z" fill="#3F3D56"/>
<path d="M0 207.941C4.1514 212.869 8.64162 217.501 13.4378 221.802L362.562 222.281C367.358 217.98 371.849 213.348 376 208.42L0 207.941Z" fill="#3F3D56"/>
<path d="M236.753 163.556V204.591C236.753 205.114 236.96 205.616 237.33 205.985C237.699 206.355 238.199 206.563 238.721 206.563H299.413C299.935 206.563 300.435 206.355 300.804 205.985C301.173 205.616 301.381 205.114 301.381 204.591V163.556C301.38 163.033 301.172 162.533 300.803 162.163C300.434 161.794 299.934 161.586 299.413 161.586H238.721C238.199 161.586 237.7 161.794 237.331 162.163C236.962 162.533 236.754 163.033 236.753 163.556Z" fill="#3F3D56"/>
<path d="M238.176 164.066V204.085C238.177 204.364 238.288 204.632 238.485 204.83C238.682 205.027 238.95 205.139 239.228 205.139H298.908C299.187 205.139 299.454 205.027 299.651 204.83C299.848 204.632 299.959 204.364 299.96 204.085V164.066C299.96 163.787 299.849 163.518 299.652 163.32C299.455 163.122 299.187 163.011 298.908 163.01H239.228C238.949 163.011 238.682 163.122 238.484 163.32C238.287 163.518 238.176 163.787 238.176 164.066Z" fill="#3B82F6"/>
<path d="M235.483 212.594C235.594 212.734 235.736 212.847 235.897 212.924C236.057 213.001 236.234 213.04 236.412 213.039H301.399C301.577 213.039 301.752 212.999 301.912 212.923C302.073 212.846 302.214 212.734 302.326 212.596C302.438 212.458 302.518 212.296 302.56 212.123C302.601 211.95 302.604 211.77 302.568 211.596L301.559 206.794C301.517 206.599 301.427 206.416 301.297 206.264C301.167 206.112 301.001 205.995 300.814 205.924C300.679 205.871 300.535 205.844 300.39 205.844H237.417C237.272 205.844 237.128 205.871 236.992 205.924C236.806 205.995 236.64 206.112 236.51 206.264C236.38 206.416 236.29 206.599 236.248 206.794L235.239 211.596C235.203 211.77 235.206 211.95 235.249 212.123C235.291 212.295 235.371 212.456 235.483 212.594Z" fill="#2F2E41"/>
<path d="M298.16 207.912H299.695C299.824 207.912 299.928 207.807 299.928 207.678V206.942C299.928 206.813 299.824 206.708 299.695 206.708H298.16C298.031 206.708 297.927 206.813 297.927 206.942V207.678C297.927 207.807 298.031 207.912 298.16 207.912Z" fill="#3F3D56"/>
<path d="M294.157 207.912H295.692C295.821 207.912 295.925 207.807 295.925 207.678V206.942C295.925 206.813 295.821 206.708 295.692 206.708H294.157C294.028 206.708 293.924 206.813 293.924 206.942V207.678C293.924 207.807 294.028 207.912 294.157 207.912Z" fill="#3F3D56"/>
<path d="M290.154 207.912H291.689C291.818 207.912 291.922 207.807 291.922 207.678V206.942C291.922 206.813 291.818 206.708 291.689 206.708H290.154C290.025 206.708 289.921 206.813 289.921 206.942V207.678C289.921 207.807 290.025 207.912 290.154 207.912Z" fill="#3F3D56"/>
<path d="M286.151 207.912H287.686C287.815 207.912 287.919 207.807 287.919 207.678V206.942C287.919 206.813 287.815 206.708 287.686 206.708H286.151C286.022 206.708 285.918 206.813 285.918 206.942V207.678C285.918 207.807 286.022 207.912 286.151 207.912Z" fill="#3F3D56"/>
<path d="M282.148 207.912H283.683C283.812 207.912 283.916 207.807 283.916 207.678V206.942C283.916 206.813 283.812 206.708 283.683 206.708H282.148C282.019 206.708 281.914 206.813 281.914 206.942V207.678C281.914 207.807 282.019 207.912 282.148 207.912Z" fill="#3F3D56"/>
<path d="M278.145 207.912H279.68C279.808 207.912 279.913 207.807 279.913 207.678V206.942C279.913 206.813 279.808 206.708 279.68 206.708H278.145C278.016 206.708 277.911 206.813 277.911 206.942V207.678C277.911 207.807 278.016 207.912 278.145 207.912Z" fill="#3F3D56"/>
<path d="M274.141 207.912H275.676C275.805 207.912 275.91 207.807 275.91 207.678V206.942C275.91 206.813 275.805 206.708 275.676 206.708H274.141C274.013 206.708 273.908 206.813 273.908 206.942V207.678C273.908 207.807 274.013 207.912 274.141 207.912Z" fill="#3F3D56"/>
<path d="M270.138 207.912H271.673C271.802 207.912 271.907 207.807 271.907 207.678V206.942C271.907 206.813 271.802 206.708 271.673 206.708H270.138C270.009 206.708 269.905 206.813 269.905 206.942V207.678C269.905 207.807 270.009 207.912 270.138 207.912Z" fill="#3F3D56"/>
<path d="M266.135 207.912H267.67C267.799 207.912 267.903 207.807 267.903 207.678V206.942C267.903 206.813 267.799 206.708 267.67 206.708H266.135C266.006 206.708 265.902 206.813 265.902 206.942V207.678C265.902 207.807 266.006 207.912 266.135 207.912Z" fill="#3F3D56"/>
<path d="M262.132 207.912H263.667C263.796 207.912 263.9 207.807 263.9 207.678V206.942C263.9 206.813 263.796 206.708 263.667 206.708H262.132C262.003 206.708 261.899 206.813 261.899 206.942V207.678C261.899 207.807 262.003 207.912 262.132 207.912Z" fill="#3F3D56"/>
<path d="M258.129 207.912H259.664C259.793 207.912 259.897 207.807 259.897 207.678V206.942C259.897 206.813 259.793 206.708 259.664 206.708H258.129C258 206.708 257.896 206.813 257.896 206.942V207.678C257.896 207.807 258 207.912 258.129 207.912Z" fill="#3F3D56"/>
<path d="M254.126 207.912H255.661C255.79 207.912 255.894 207.807 255.894 207.678V206.942C255.894 206.813 255.79 206.708 255.661 206.708H254.126C253.997 206.708 253.892 206.813 253.892 206.942V207.678C253.892 207.807 253.997 207.912 254.126 207.912Z" fill="#3F3D56"/>
<path d="M250.123 207.912H251.658C251.786 207.912 251.891 207.807 251.891 207.678V206.942C251.891 206.813 251.786 206.708 251.658 206.708H250.123C249.994 206.708 249.889 206.813 249.889 206.942V207.678C249.889 207.807 249.994 207.912 250.123 207.912Z" fill="#3F3D56"/>
<path d="M246.12 207.912H247.655C247.783 207.912 247.888 207.807 247.888 207.678V206.942C247.888 206.813 247.783 206.708 247.655 206.708H246.12C245.991 206.708 245.886 206.813 245.886 206.942V207.678C245.886 207.807 245.991 207.912 246.12 207.912Z" fill="#3F3D56"/>
<path d="M242.116 207.912H243.651C243.78 207.912 243.885 207.807 243.885 207.678V206.942C243.885 206.813 243.78 206.708 243.651 206.708H242.116C241.988 206.708 241.883 206.813 241.883 206.942V207.678C241.883 207.807 241.988 207.912 242.116 207.912Z" fill="#3F3D56"/>
<path d="M238.113 207.912H239.648C239.777 207.912 239.881 207.807 239.881 207.678V206.942C239.881 206.813 239.777 206.708 239.648 206.708H238.113C237.984 206.708 237.88 206.813 237.88 206.942V207.678C237.88 207.807 237.984 207.912 238.113 207.912Z" fill="#3F3D56"/>
<path d="M298.208 209.917H299.743C299.871 209.917 299.976 209.813 299.976 209.683V208.948C299.976 208.819 299.871 208.714 299.743 208.714H298.208C298.079 208.714 297.974 208.819 297.974 208.948V209.683C297.974 209.813 298.079 209.917 298.208 209.917Z" fill="#3F3D56"/>
<path d="M294.204 209.917H295.739C295.868 209.917 295.973 209.813 295.973 209.683V208.948C295.973 208.819 295.868 208.714 295.739 208.714H294.204C294.076 208.714 293.971 208.819 293.971 208.948V209.683C293.971 209.813 294.076 209.917 294.204 209.917Z" fill="#3F3D56"/>
<path d="M290.201 209.917H291.736C291.865 209.917 291.969 209.813 291.969 209.683V208.948C291.969 208.819 291.865 208.714 291.736 208.714H290.201C290.072 208.714 289.968 208.819 289.968 208.948V209.683C289.968 209.813 290.072 209.917 290.201 209.917Z" fill="#3F3D56"/>
<path d="M286.198 209.917H287.733C287.862 209.917 287.966 209.813 287.966 209.683V208.948C287.966 208.819 287.862 208.714 287.733 208.714H286.198C286.069 208.714 285.965 208.819 285.965 208.948V209.683C285.965 209.813 286.069 209.917 286.198 209.917Z" fill="#3F3D56"/>
<path d="M282.195 209.917H283.73C283.859 209.917 283.963 209.813 283.963 209.683V208.948C283.963 208.819 283.859 208.714 283.73 208.714H282.195C282.066 208.714 281.962 208.819 281.962 208.948V209.683C281.962 209.813 282.066 209.917 282.195 209.917Z" fill="#3F3D56"/>
<path d="M278.192 209.917H279.727C279.856 209.917 279.96 209.813 279.96 209.683V208.948C279.96 208.819 279.856 208.714 279.727 208.714H278.192C278.063 208.714 277.959 208.819 277.959 208.948V209.683C277.959 209.813 278.063 209.917 278.192 209.917Z" fill="#3F3D56"/>
<path d="M274.189 209.917H275.724C275.853 209.917 275.957 209.813 275.957 209.683V208.948C275.957 208.819 275.853 208.714 275.724 208.714H274.189C274.06 208.714 273.955 208.819 273.955 208.948V209.683C273.955 209.813 274.06 209.917 274.189 209.917Z" fill="#3F3D56"/>
<path d="M270.186 209.917H271.721C271.849 209.917 271.954 209.813 271.954 209.683V208.948C271.954 208.819 271.849 208.714 271.721 208.714H270.186C270.057 208.714 269.952 208.819 269.952 208.948V209.683C269.952 209.813 270.057 209.917 270.186 209.917Z" fill="#3F3D56"/>
<path d="M266.182 209.917H267.717C267.846 209.917 267.951 209.813 267.951 209.683V208.948C267.951 208.819 267.846 208.714 267.717 208.714H266.182C266.054 208.714 265.949 208.819 265.949 208.948V209.683C265.949 209.813 266.054 209.917 266.182 209.917Z" fill="#3F3D56"/>
<path d="M262.179 209.917H263.714C263.843 209.917 263.948 209.813 263.948 209.683V208.948C263.948 208.819 263.843 208.714 263.714 208.714H262.179C262.051 208.714 261.946 208.819 261.946 208.948V209.683C261.946 209.813 262.051 209.917 262.179 209.917Z" fill="#3F3D56"/>
<path d="M258.176 209.917H259.711C259.84 209.917 259.944 209.813 259.944 209.683V208.948C259.944 208.819 259.84 208.714 259.711 208.714H258.176C258.047 208.714 257.943 208.819 257.943 208.948V209.683C257.943 209.813 258.047 209.917 258.176 209.917Z" fill="#3F3D56"/>
<path d="M254.173 209.917H255.708C255.837 209.917 255.941 209.813 255.941 209.683V208.948C255.941 208.819 255.837 208.714 255.708 208.714H254.173C254.044 208.714 253.94 208.819 253.94 208.948V209.683C253.94 209.813 254.044 209.917 254.173 209.917Z" fill="#3F3D56"/>
<path d="M250.17 209.917H251.705C251.834 209.917 251.938 209.813 251.938 209.683V208.948C251.938 208.819 251.834 208.714 251.705 208.714H250.17C250.041 208.714 249.937 208.819 249.937 208.948V209.683C249.937 209.813 250.041 209.917 250.17 209.917Z" fill="#3F3D56"/>
<path d="M246.167 209.917H247.702C247.831 209.917 247.935 209.813 247.935 209.683V208.948C247.935 208.819 247.831 208.714 247.702 208.714H246.167C246.038 208.714 245.933 208.819 245.933 208.948V209.683C245.933 209.813 246.038 209.917 246.167 209.917Z" fill="#3F3D56"/>
<path d="M242.164 209.917H243.699C243.827 209.917 243.932 209.813 243.932 209.683V208.948C243.932 208.819 243.827 208.714 243.699 208.714H242.164C242.035 208.714 241.93 208.819 241.93 208.948V209.683C241.93 209.813 242.035 209.917 242.164 209.917Z" fill="#3F3D56"/>
<path d="M238.161 209.917H239.696C239.824 209.917 239.929 209.813 239.929 209.683V208.948C239.929 208.819 239.824 208.714 239.696 208.714H238.161C238.032 208.714 237.927 208.819 237.927 208.948V209.683C237.927 209.813 238.032 209.917 238.161 209.917Z" fill="#3F3D56"/>
<path d="M264.982 212.324H280.527C280.656 212.324 280.761 212.219 280.761 212.09V211.354C280.761 211.225 280.656 211.121 280.527 211.121H264.982C264.853 211.121 264.748 211.225 264.748 211.354V212.09C264.748 212.219 264.853 212.324 264.982 212.324Z" fill="#3F3D56"/>
<path d="M248.511 171.765H247.152C246.74 171.765 246.406 172.1 246.406 172.513C246.406 172.925 246.74 173.26 247.152 173.26H248.511C248.923 173.26 249.257 172.925 249.257 172.513C249.257 172.1 248.923 171.765 248.511 171.765Z" fill="white"/>
<path d="M264.053 171.765H262.694C262.282 171.765 261.948 172.1 261.948 172.513C261.948 172.925 262.282 173.26 262.694 173.26H264.053C264.465 173.26 264.799 172.925 264.799 172.513C264.799 172.1 264.465 171.765 264.053 171.765Z" fill="white"/>
<path d="M268.456 171.765H267.098C266.686 171.765 266.352 172.1 266.352 172.513C266.352 172.925 266.686 173.26 267.098 173.26H268.456C268.868 173.26 269.202 172.925 269.202 172.513C269.202 172.1 268.868 171.765 268.456 171.765Z" fill="white"/>
<path d="M259.825 171.641H251.38C250.968 171.641 250.634 171.975 250.634 172.388C250.634 172.801 250.968 173.135 251.38 173.135H259.825C260.237 173.135 260.571 172.801 260.571 172.388C260.571 171.975 260.237 171.641 259.825 171.641Z" fill="white"/>
<path d="M280.548 171.641H272.102C271.69 171.641 271.356 171.975 271.356 172.388C271.356 172.801 271.69 173.135 272.102 173.135H280.548C280.96 173.135 281.294 172.801 281.294 172.388C281.294 171.975 280.96 171.641 280.548 171.641Z" fill="white"/>
<path d="M252.656 175.139H251.297C250.885 175.139 250.551 175.474 250.551 175.887C250.551 176.299 250.885 176.634 251.297 176.634H252.656C253.068 176.634 253.402 176.299 253.402 175.887C253.402 175.474 253.068 175.139 252.656 175.139Z" fill="white"/>
<path d="M268.197 175.139H266.839C266.427 175.139 266.093 175.474 266.093 175.887C266.093 176.299 266.427 176.634 266.839 176.634H268.197C268.609 176.634 268.943 176.299 268.943 175.887C268.943 175.474 268.609 175.139 268.197 175.139Z" fill="white"/>
<path d="M272.601 175.139H271.242C270.83 175.139 270.496 175.474 270.496 175.887C270.496 176.299 270.83 176.634 271.242 176.634H272.601C273.013 176.634 273.347 176.299 273.347 175.887C273.347 175.474 273.013 175.139 272.601 175.139Z" fill="white"/>
<path d="M263.97 175.015H255.524C255.112 175.015 254.778 175.349 254.778 175.762C254.778 176.175 255.112 176.509 255.524 176.509H263.97C264.382 176.509 264.716 176.175 264.716 175.762C264.716 175.349 264.382 175.015 263.97 175.015Z" fill="white"/>
<path d="M284.693 175.015H276.247C275.835 175.015 275.501 175.349 275.501 175.762C275.501 176.175 275.835 176.509 276.247 176.509H284.693C285.105 176.509 285.439 176.175 285.439 175.762C285.439 175.349 285.105 175.015 284.693 175.015Z" fill="white"/>
<path d="M256.8 178.513H255.441C255.029 178.513 254.695 178.848 254.695 179.261C254.695 179.673 255.029 180.008 255.441 180.008H256.8C257.212 180.008 257.546 179.673 257.546 179.261C257.546 178.848 257.212 178.513 256.8 178.513Z" fill="white"/>
<path d="M272.342 178.513H270.983C270.571 178.513 270.237 178.848 270.237 179.261C270.237 179.673 270.571 180.008 270.983 180.008H272.342C272.754 180.008 273.088 179.673 273.088 179.261C273.088 178.848 272.754 178.513 272.342 178.513Z" fill="white"/>
<path d="M276.746 178.513H275.387C274.975 178.513 274.641 178.848 274.641 179.261C274.641 179.673 274.975 180.008 275.387 180.008H276.746C277.158 180.008 277.492 179.673 277.492 179.261C277.492 178.848 277.158 178.513 276.746 178.513Z" fill="white"/>
<path d="M268.115 178.389H259.669C259.257 178.389 258.923 178.723 258.923 179.136C258.923 179.549 259.257 179.883 259.669 179.883H268.115C268.527 179.883 268.86 179.549 268.86 179.136C268.86 178.723 268.527 178.389 268.115 178.389Z" fill="white"/>
<path d="M288.837 178.389H280.391C279.979 178.389 279.645 178.723 279.645 179.136C279.645 179.549 279.979 179.883 280.391 179.883H288.837C289.249 179.883 289.583 179.549 289.583 179.136C289.583 178.723 289.249 178.389 288.837 178.389Z" fill="white"/>
<path d="M260.945 181.887H259.586C259.174 181.887 258.84 182.222 258.84 182.635C258.84 183.047 259.174 183.382 259.586 183.382H260.945C261.357 183.382 261.691 183.047 261.691 182.635C261.691 182.222 261.357 181.887 260.945 181.887Z" fill="white"/>
<path d="M276.487 181.887H275.128C274.716 181.887 274.382 182.222 274.382 182.635C274.382 183.047 274.716 183.382 275.128 183.382H276.487C276.899 183.382 277.232 183.047 277.232 182.635C277.232 182.222 276.899 181.887 276.487 181.887Z" fill="white"/>
<path d="M280.89 181.887H279.531C279.119 181.887 278.785 182.222 278.785 182.635C278.785 183.047 279.119 183.382 279.531 183.382H280.89C281.302 183.382 281.636 183.047 281.636 182.635C281.636 182.222 281.302 181.887 280.89 181.887Z" fill="white"/>
<path d="M272.259 181.762H263.813C263.401 181.762 263.067 182.097 263.067 182.51C263.067 182.923 263.401 183.257 263.813 183.257H272.259C272.671 183.257 273.005 182.923 273.005 182.51C273.005 182.097 272.671 181.762 272.259 181.762Z" fill="white"/>
<path d="M264.053 195.303H262.694C262.282 195.303 261.948 195.638 261.948 196.051C261.948 196.464 262.282 196.798 262.694 196.798H264.053C264.465 196.798 264.799 196.464 264.799 196.051C264.799 195.638 264.465 195.303 264.053 195.303Z" fill="white"/>
<path d="M268.456 195.303H267.098C266.686 195.303 266.352 195.638 266.352 196.051C266.352 196.464 266.686 196.798 267.098 196.798H268.456C268.868 196.798 269.202 196.464 269.202 196.051C269.202 195.638 268.868 195.303 268.456 195.303Z" fill="white"/>
<path d="M280.548 195.428H272.102C271.69 195.428 271.356 195.763 271.356 196.176C271.356 196.588 271.69 196.923 272.102 196.923H280.548C280.96 196.923 281.294 196.588 281.294 196.176C281.294 195.763 280.96 195.428 280.548 195.428Z" fill="white"/>
<path d="M248.511 195.303H247.152C246.74 195.303 246.406 195.638 246.406 196.051C246.406 196.464 246.74 196.798 247.152 196.798H248.511C248.923 196.798 249.257 196.464 249.257 196.051C249.257 195.638 248.923 195.303 248.511 195.303Z" fill="white"/>
<path d="M259.825 195.428H251.38C250.968 195.428 250.634 195.763 250.634 196.176C250.634 196.588 250.968 196.923 251.38 196.923H259.825C260.237 196.923 260.571 196.588 260.571 196.176C260.571 195.763 260.237 195.428 259.825 195.428Z" fill="white"/>
<path d="M252.656 191.929H251.297C250.885 191.929 250.551 192.264 250.551 192.677C250.551 193.09 250.885 193.424 251.297 193.424H252.656C253.068 193.424 253.402 193.09 253.402 192.677C253.402 192.264 253.068 191.929 252.656 191.929Z" fill="white"/>
<path d="M268.197 191.929H266.839C266.427 191.929 266.093 192.264 266.093 192.677C266.093 193.09 266.427 193.424 266.839 193.424H268.197C268.609 193.424 268.943 193.09 268.943 192.677C268.943 192.264 268.609 191.929 268.197 191.929Z" fill="white"/>
<path d="M272.601 191.929H271.242C270.83 191.929 270.496 192.264 270.496 192.677C270.496 193.09 270.83 193.424 271.242 193.424H272.601C273.013 193.424 273.347 193.09 273.347 192.677C273.347 192.264 273.013 191.929 272.601 191.929Z" fill="white"/>
<path d="M263.97 192.054H255.524C255.112 192.054 254.778 192.389 254.778 192.802C254.778 193.214 255.112 193.549 255.524 193.549H263.97C264.382 193.549 264.716 193.214 264.716 192.802C264.716 192.389 264.382 192.054 263.97 192.054Z" fill="white"/>
<path d="M256.8 188.555H255.441C255.029 188.555 254.695 188.89 254.695 189.303C254.695 189.716 255.029 190.05 255.441 190.05H256.8C257.212 190.05 257.546 189.716 257.546 189.303C257.546 188.89 257.212 188.555 256.8 188.555Z" fill="white"/>
<path d="M272.342 188.555H270.983C270.571 188.555 270.237 188.89 270.237 189.303C270.237 189.716 270.571 190.05 270.983 190.05H272.342C272.754 190.05 273.088 189.716 273.088 189.303C273.088 188.89 272.754 188.555 272.342 188.555Z" fill="white"/>
<path d="M276.746 188.555H275.387C274.975 188.555 274.641 188.89 274.641 189.303C274.641 189.716 274.975 190.05 275.387 190.05H276.746C277.158 190.05 277.492 189.716 277.492 189.303C277.492 188.89 277.158 188.555 276.746 188.555Z" fill="white"/>
<path d="M268.115 188.68H259.669C259.257 188.68 258.923 189.015 258.923 189.428C258.923 189.84 259.257 190.175 259.669 190.175H268.115C268.527 190.175 268.86 189.84 268.86 189.428C268.86 189.015 268.527 188.68 268.115 188.68Z" fill="white"/>
<path d="M260.945 185.182H259.586C259.174 185.182 258.84 185.516 258.84 185.929C258.84 186.342 259.174 186.676 259.586 186.676H260.945C261.357 186.676 261.691 186.342 261.691 185.929C261.691 185.516 261.357 185.182 260.945 185.182Z" fill="white"/>
<path d="M276.487 185.182H275.128C274.716 185.182 274.382 185.516 274.382 185.929C274.382 186.342 274.716 186.676 275.128 186.676H276.487C276.899 186.676 277.232 186.342 277.232 185.929C277.232 185.516 276.899 185.182 276.487 185.182Z" fill="white"/>
<path d="M280.89 185.182H279.531C279.119 185.182 278.785 185.516 278.785 185.929C278.785 186.342 279.119 186.676 279.531 186.676H280.89C281.302 186.676 281.636 186.342 281.636 185.929C281.636 185.516 281.302 185.182 280.89 185.182Z" fill="white"/>
<path d="M272.259 185.306H263.813C263.401 185.306 263.067 185.641 263.067 186.054C263.067 186.466 263.401 186.801 263.813 186.801H272.259C272.671 186.801 273.005 186.466 273.005 186.054C273.005 185.641 272.671 185.306 272.259 185.306Z" fill="white"/>
<path d="M241.286 234.845L234.907 224.742L254.931 208.748L263.196 199.574C264.27 198.382 265.637 197.493 267.161 196.996C268.685 196.5 270.312 196.413 271.88 196.743C273.448 197.074 274.902 197.812 276.097 198.882C277.291 199.953 278.185 201.318 278.687 202.843C279.432 205.102 279.272 207.563 278.241 209.706C277.209 211.85 275.387 213.507 273.158 214.33L260.089 219.154L241.286 234.845Z" fill="#FFB6B6"/>
<path d="M91.6035 161.588V210.694H125.939V161.588C125.939 161.234 125.827 160.89 125.618 160.606C125.409 160.322 125.114 160.112 124.777 160.008C124.619 159.955 124.452 159.929 124.285 159.931H93.2617C93.0443 159.93 92.8288 159.973 92.6278 160.056C92.4267 160.139 92.244 160.261 92.0899 160.415C91.9359 160.569 91.8137 160.752 91.7302 160.953C91.6468 161.154 91.6037 161.37 91.6035 161.588ZM105.003 178.461C105.012 177.493 105.402 176.567 106.089 175.886C106.775 175.204 107.702 174.822 108.668 174.822C109.635 174.822 110.562 175.204 111.248 175.886C111.935 176.567 112.325 177.493 112.334 178.461V184.158C112.329 185.129 111.94 186.058 111.254 186.743C110.567 187.428 109.637 187.812 108.668 187.812C107.699 187.812 106.77 187.428 106.083 186.743C105.396 186.058 105.008 185.129 105.003 184.158V178.461Z" fill="#2F2E41"/>
<path d="M91.4984 209.123V213.859C91.4992 214.104 91.5965 214.339 91.7691 214.513C91.9418 214.687 92.1759 214.786 92.4207 214.788H125.122C125.367 214.786 125.601 214.688 125.774 214.514C125.947 214.34 126.044 214.104 126.044 213.859V209.123H91.4984Z" fill="#3F3D56"/>
<path d="M37.5895 87.6026V177.264C37.5904 178.406 38.0438 179.502 38.8502 180.31C39.6565 181.118 40.75 181.572 41.8903 181.573H174.5C175.64 181.572 176.734 181.118 177.54 180.31C178.347 179.502 178.8 178.406 178.801 177.264V87.6026C178.798 86.461 178.344 85.367 177.538 84.5602C176.732 83.7534 175.639 83.2996 174.5 83.2982H41.8903C40.7509 83.2996 39.6586 83.7534 38.8525 84.5602C38.0463 85.367 37.5922 86.461 37.5895 87.6026Z" fill="#3F3D56"/>
<path d="M40.7004 88.7182V176.158C40.7015 176.768 40.944 177.353 41.3748 177.785C41.8057 178.217 42.3897 178.46 42.999 178.461H173.396C174.006 178.46 174.59 178.217 175.02 177.785C175.451 177.353 175.694 176.768 175.695 176.158V88.7182C175.695 88.107 175.453 87.5207 175.022 87.0881C174.591 86.6554 174.006 86.4117 173.396 86.4104H42.999C42.389 86.4117 41.8044 86.6554 41.3735 87.0881C40.9425 87.5207 40.7005 88.107 40.7004 88.7182Z" fill="white"/>
<path d="M64.8999 214.467C65.0327 214.634 65.2014 214.768 65.3934 214.86C65.5854 214.952 65.7957 214.999 66.0086 214.998H143.587C143.799 214.998 144.008 214.95 144.2 214.859C144.391 214.767 144.56 214.634 144.693 214.469C144.827 214.304 144.922 214.111 144.972 213.904C145.022 213.698 145.025 213.483 144.982 213.275L143.778 207.543C143.728 207.31 143.62 207.092 143.465 206.911C143.31 206.729 143.112 206.589 142.889 206.504C142.727 206.441 142.556 206.408 142.382 206.409H67.2081C67.0347 206.408 66.8629 206.441 66.7015 206.504C66.4786 206.589 66.2805 206.729 66.1253 206.911C65.97 207.092 65.8626 207.31 65.8127 207.543L64.6084 213.275C64.5656 213.483 64.5695 213.697 64.6199 213.904C64.6704 214.11 64.766 214.302 64.8999 214.467Z" fill="#2F2E41"/>
<path d="M169.164 98.4555H47.1523C47.0255 98.4527 46.9048 98.4003 46.8161 98.3094C46.7274 98.2185 46.6777 98.0965 46.6777 97.9694C46.6777 97.8423 46.7274 97.7202 46.8161 97.6294C46.9048 97.5385 47.0255 97.486 47.1523 97.4832H169.164C169.291 97.486 169.412 97.5385 169.501 97.6294C169.589 97.7202 169.639 97.8423 169.639 97.9694C169.639 98.0965 169.589 98.2185 169.501 98.3094C169.412 98.4003 169.291 98.4527 169.164 98.4555Z" fill="#3F3D56"/>
<path d="M55.4578 95.001C57.0283 95.001 58.3014 93.697 58.3014 92.0884C58.3014 90.4799 57.0283 89.1758 55.4578 89.1758C53.8874 89.1758 52.6143 90.4799 52.6143 92.0884C52.6143 93.697 53.8874 95.001 55.4578 95.001Z" fill="#3F3D56"/>
<path d="M65.2809 95.001C66.8514 95.001 68.1245 93.697 68.1245 92.0884C68.1245 90.4799 66.8514 89.1758 65.2809 89.1758C63.7105 89.1758 62.4374 90.4799 62.4374 92.0884C62.4374 93.697 63.7105 95.001 65.2809 95.001Z" fill="#3F3D56"/>
<path d="M75.1041 95.001C76.6746 95.001 77.9477 93.697 77.9477 92.0884C77.9477 90.4799 76.6746 89.1758 75.1041 89.1758C73.5337 89.1758 72.2606 90.4799 72.2606 92.0884C72.2606 93.697 73.5337 95.001 75.1041 95.001Z" fill="#3F3D56"/>
<path d="M163.249 89.8961H156.272C156.134 89.8993 156.003 89.9565 155.907 90.0554C155.81 90.1542 155.756 90.287 155.756 90.4252C155.756 90.5634 155.81 90.6962 155.907 90.795C156.003 90.8939 156.134 90.9511 156.272 90.9543H163.249C163.388 90.9523 163.52 90.8957 163.618 90.7967C163.715 90.6977 163.77 90.5642 163.77 90.4252C163.77 90.2861 163.715 90.1527 163.618 90.0537C163.52 89.9547 163.388 89.8981 163.249 89.8961Z" fill="#3F3D56"/>
<path d="M163.249 91.8831H156.272C156.134 91.8862 156.003 91.9433 155.906 92.0422C155.81 92.1411 155.756 92.2739 155.756 92.4122C155.756 92.5506 155.81 92.6834 155.906 92.7823C156.003 92.8812 156.134 92.9382 156.272 92.9413H163.249C163.388 92.9396 163.521 92.8831 163.619 92.7841C163.716 92.6851 163.771 92.5515 163.771 92.4122C163.771 92.273 163.716 92.1394 163.619 92.0403C163.521 91.9413 163.388 91.8848 163.249 91.8831Z" fill="#3F3D56"/>
<path d="M163.249 93.8701H156.272C156.134 93.8734 156.003 93.9305 155.907 94.0294C155.81 94.1283 155.756 94.261 155.756 94.3992C155.756 94.5375 155.81 94.6702 155.907 94.7691C156.003 94.8679 156.134 94.9251 156.272 94.9283H163.249C163.388 94.9263 163.52 94.8697 163.618 94.7707C163.715 94.6717 163.77 94.5383 163.77 94.3992C163.77 94.2602 163.715 94.1267 163.618 94.0277C163.52 93.9287 163.388 93.8721 163.249 93.8701Z" fill="#3F3D56"/>
<path d="M331.451 211.202C331.661 211.816 332.061 212.347 332.591 212.72C333.122 213.092 333.757 213.287 334.405 213.275L347.065 212.949C347.718 212.936 348.349 212.712 348.864 212.31C349.379 211.908 349.751 211.35 349.923 210.719L351.715 191.525C352.35 191.814 353.042 191.956 353.74 191.942C354.346 191.927 354.943 191.792 355.497 191.546C356.052 191.299 356.552 190.946 356.97 190.505C357.387 190.065 357.715 189.547 357.933 188.98C358.15 188.413 358.255 187.809 358.24 187.201C358.224 186.594 358.09 185.996 357.844 185.441C357.598 184.885 357.245 184.384 356.806 183.966C356.366 183.547 355.849 183.219 355.283 183.001C354.718 182.782 354.114 182.678 353.508 182.693C353.229 182.692 352.951 182.721 352.679 182.78C352.382 182.458 352.022 182.202 351.62 182.029C351.219 181.856 350.786 181.768 350.349 181.773L330.876 182.277C330.714 182.283 330.554 182.303 330.395 182.336C329.968 182.416 329.563 182.587 329.208 182.836C328.852 183.086 328.554 183.409 328.333 183.784C328.112 184.159 327.974 184.577 327.928 185.01C327.882 185.443 327.93 185.88 328.067 186.293L331.451 211.202ZM352.082 190.222L353.357 185.648C353.502 185.12 353.505 184.562 353.367 184.032C353.429 184.032 353.483 184.003 353.545 184.002C354.419 183.984 355.265 184.314 355.896 184.92C356.528 185.526 356.894 186.357 356.915 187.233C356.935 188.109 356.608 188.957 356.005 189.592C355.403 190.226 354.574 190.595 353.7 190.618C353.134 190.636 352.575 190.499 352.082 190.222Z" fill="#2F2E41"/>
<path d="M330.395 182.336C330.81 184.713 335.475 186.384 341.083 186.094C346.241 185.855 350.458 184.041 351.231 181.89C350.945 181.806 350.647 181.766 350.349 181.773L330.876 182.276C330.714 182.282 330.553 182.302 330.395 182.336Z" fill="#3F3D56"/>
<path d="M342.111 200.654C342.137 200.648 342.161 200.637 342.183 200.623L344.933 198.82C344.966 198.798 344.993 198.768 345.012 198.733C345.031 198.698 345.041 198.659 345.041 198.619C345.041 198.58 345.031 198.541 345.012 198.506C344.993 198.471 344.966 198.441 344.933 198.419L342.075 196.544C342.049 196.526 342.02 196.514 341.989 196.508C341.958 196.502 341.926 196.503 341.895 196.509C341.865 196.515 341.835 196.528 341.809 196.545C341.783 196.563 341.761 196.586 341.744 196.612C341.727 196.639 341.715 196.668 341.709 196.699C341.703 196.73 341.703 196.762 341.71 196.793C341.716 196.823 341.729 196.853 341.747 196.879C341.764 196.905 341.787 196.927 341.813 196.944L344.366 198.619L341.922 200.222C341.875 200.253 341.84 200.3 341.824 200.354C341.808 200.408 341.811 200.467 341.834 200.519C341.857 200.57 341.897 200.613 341.948 200.637C341.999 200.662 342.057 200.668 342.111 200.654Z" fill="#3B82F6"/>
<path d="M337.769 200.855C337.815 200.843 337.857 200.818 337.888 200.783C337.92 200.747 337.941 200.703 337.947 200.655C337.954 200.608 337.946 200.56 337.925 200.517C337.904 200.475 337.871 200.439 337.829 200.415L335.295 198.96L337.744 197.137C337.77 197.118 337.791 197.094 337.807 197.067C337.823 197.04 337.834 197.011 337.838 196.979C337.843 196.948 337.841 196.917 337.834 196.886C337.826 196.856 337.812 196.827 337.794 196.802C337.775 196.777 337.752 196.755 337.725 196.739C337.698 196.723 337.668 196.712 337.637 196.708C337.606 196.703 337.574 196.705 337.544 196.713C337.513 196.72 337.485 196.734 337.46 196.753L334.717 198.794C334.685 198.817 334.66 198.848 334.643 198.884C334.626 198.92 334.619 198.96 334.621 199C334.623 199.039 334.636 199.078 334.657 199.112C334.677 199.145 334.706 199.173 334.741 199.193L337.591 200.831C337.645 200.862 337.709 200.87 337.769 200.855Z" fill="#3B82F6"/>
<path d="M341.838 202.234C341.861 202.229 341.883 202.219 341.903 202.207C341.93 202.19 341.954 202.169 341.972 202.144C341.991 202.118 342.004 202.089 342.012 202.059C342.019 202.028 342.02 201.997 342.016 201.965C342.011 201.934 342 201.905 341.983 201.878L338.086 195.458C338.053 195.404 338 195.365 337.938 195.35C337.877 195.335 337.812 195.345 337.758 195.378C337.704 195.411 337.665 195.464 337.65 195.526C337.635 195.588 337.645 195.653 337.678 195.707L341.575 202.127C341.602 202.171 341.642 202.205 341.689 202.224C341.736 202.243 341.788 202.247 341.838 202.234Z" fill="#3B82F6"/>
<path d="M122.737 124.885H101.619C100.758 124.885 100.059 125.585 100.059 126.448V128.515C100.059 129.379 100.758 130.078 101.619 130.078H122.737C123.598 130.078 124.297 129.379 124.297 128.515V126.448C124.297 125.585 123.598 124.885 122.737 124.885Z" fill="#3B82F6"/>
<path d="M135.046 135.271H89.3097C88.4483 135.271 87.7499 135.971 87.7499 136.834V138.901C87.7499 139.765 88.4483 140.464 89.3097 140.464H135.046C135.907 140.464 136.606 139.765 136.606 138.901V136.834C136.606 135.971 135.907 135.271 135.046 135.271Z" fill="#E6E6E6"/>
<path d="M135.046 145.657H89.3097C88.4483 145.657 87.7499 146.357 87.7499 147.22V149.287C87.7499 150.151 88.4483 150.85 89.3097 150.85H135.046C135.907 150.85 136.606 150.151 136.606 149.287V147.22C136.606 146.357 135.907 145.657 135.046 145.657Z" fill="#E6E6E6"/>
<path d="M138.923 180.436L139.027 180.763L139.032 180.774L142.15 190.273L145.737 201.219L152.486 221.789L152.552 224.984V224.995L153.053 250.7L151.663 254.184L153.228 259.898C153.228 259.898 152.508 251.261 148.648 256.221C146.462 259.039 143.906 261.923 141.807 264.627C144.865 265.867 147.972 266.989 151.129 267.992C151.81 268.21 152.497 268.418 153.184 268.625C153.331 268.669 153.478 268.713 153.626 268.756C164.088 271.857 174.905 273.599 185.811 273.94C186.378 273.956 186.934 273.967 187.473 273.978C187.664 273.984 187.85 273.989 188.035 273.989C188.645 273.995 189.251 274 189.861 274C191.093 274 192.32 273.982 193.541 273.945C202.579 273.69 211.564 272.473 220.345 270.313C220.285 266.681 220.122 262.437 219.888 257.903C219.778 255.68 217.331 253.272 217.184 250.945C217.08 249.197 219.277 247.553 219.162 245.778C218.421 234.848 217.494 239.044 216.807 231.304C216.737 230.545 216.671 229.818 216.611 229.125C216.17 224.154 215.864 221.046 215.864 221.046L218.797 202.524L223.404 173.444L223.049 172.86L222.651 172.663L198.354 160.614L197.035 157.228C196.651 156.252 195.984 155.414 195.12 154.821C194.257 154.228 193.236 153.908 192.189 153.901L176.184 153.836C175.353 153.832 174.533 154.027 173.793 154.404C173.052 154.781 172.412 155.329 171.926 156.004L167.592 162.018L138.923 180.436Z" fill="#3F3D56"/>
<path d="M156.177 217.212L152.552 224.984L150.077 230.293L145.819 252.628L143.688 254.894L141.861 246.87L122.748 251.122C122.121 247.632 122.58 251.24 122.193 247.411C122.302 247.302 122.416 247.193 122.531 247.084C122.836 246.8 123.092 246.532 123.087 246.275C122.869 233.068 123.523 210.592 128.985 196.975C129.841 194.752 130.969 192.643 132.343 190.699C132.452 190.551 132.556 190.404 132.659 190.257C135.178 186.723 136.77 183.243 139.027 180.769V180.764C139.041 180.752 139.053 180.739 139.065 180.725C139.073 180.721 139.08 180.716 139.087 180.709L154.59 172.472L155.255 191.196L155.73 204.654L156.177 217.212Z" fill="#3F3D56"/>
<path d="M212.081 219.419L216.609 229.127L218.19 232.508L222.446 254.84L224.57 257.101L226.401 249.079L227.261 248.902L242.772 245.683L247.293 260.07C248.312 258.369 248.713 256.367 248.429 254.404C248.145 252.44 247.193 250.635 245.734 249.294C245.426 249.014 245.168 248.742 245.176 248.484C245.433 232.95 244.485 204.585 235.921 192.911C233.201 189.206 231.569 185.516 229.194 182.938C229.187 182.931 229.187 182.923 229.18 182.923L223.402 173.444L223.049 172.862L222.652 172.663L212.081 219.419Z" fill="#3F3D56"/>
<path d="M184.648 149.272C196.408 149.272 205.942 139.72 205.942 127.937C205.942 116.154 196.408 106.602 184.648 106.602C172.889 106.602 163.355 116.154 163.355 127.937C163.355 139.72 172.889 149.272 184.648 149.272Z" fill="#FFB6B6"/>
<path d="M213.429 113.035C213.264 112.858 213.065 112.717 212.844 112.619C212.623 112.521 212.385 112.469 212.143 112.465L212.463 111.574C212.568 111.294 212.596 110.991 212.545 110.696C212.494 110.401 212.366 110.124 212.173 109.895C211.981 109.666 211.731 109.493 211.449 109.392C211.168 109.292 210.865 109.268 210.571 109.324L209.405 109.549L209.515 108.769C209.557 108.478 209.523 108.181 209.416 107.908C209.309 107.634 209.133 107.394 208.905 107.209C208.677 107.024 208.405 106.903 208.115 106.855C207.826 106.808 207.529 106.837 207.255 106.94C207.005 107.038 206.736 107.079 206.468 107.06C206.2 107.041 205.94 106.962 205.706 106.829C205.472 106.701 205.268 106.522 205.11 106.306C204.951 106.09 204.842 105.842 204.789 105.58L204.383 103.617L204.34 103.511C202.361 100.208 198.557 97.804 193.903 96.923C189.76 96.1329 185.511 96.5351 181.416 96.9134C179.791 97.0666 177.956 97.239 176.427 98.1774C175.127 98.9818 174.028 100.591 174.253 102.214C170.215 100.974 165.885 103.449 163.74 106.571C161.197 110.286 160.781 114.94 160.715 118.579C160.533 127.188 162.306 134.231 165.971 139.518C166.239 139.901 166.306 140.7 166.836 140.968L166.726 140.791C167.319 141.088 167.921 141.567 167.696 142.079C167.051 143.554 171.338 146.814 174.358 147.892C179.868 149.86 187.194 149.692 192.345 148.983L192.527 147.763C194.385 147.509 195.695 147.025 196.063 146.269C196.713 145.713 197.267 145.215 197.75 144.756L197.755 144.751C197.764 144.741 197.783 144.727 197.793 144.717C200.12 142.481 200.66 141.208 200.904 139.269C201.138 137.368 200.722 135.438 200.297 133.7C209.252 135.089 196.77 124.143 205.114 122.027C205.209 121.997 205.307 121.973 205.405 121.955C205.649 121.897 205.893 121.84 206.127 121.773C207.256 121.466 208.336 121.004 209.338 120.399C211.67 118.977 212.44 117.09 213.644 114.964C213.818 114.662 213.89 114.311 213.852 113.964C213.813 113.617 213.665 113.292 213.429 113.035Z" fill="#2F2E41"/>
<path d="M259.959 220.938C259.954 221.776 259.945 222.949 259.907 224.4C259.902 224.601 259.897 224.807 259.892 225.018C259.83 227.685 259.768 229.921 259.668 232.406C259.663 232.578 259.658 232.746 259.649 232.918C259.515 236.385 259.304 240.421 258.941 246.813C258.267 258.62 257.092 248.436 255.912 252.578C255.854 252.784 255.792 253.028 255.735 253.315C255.556 254.357 255.254 255.375 254.836 256.346C254.21 256.719 253.565 257.079 252.93 257.438C251.118 258.448 249.279 259.42 247.425 260.344C246.383 260.861 245.336 261.369 244.285 261.857C244.118 261.934 243.955 262.01 243.793 262.082C238.409 264.577 232.861 266.698 227.187 268.431C226.078 268.766 224.974 269.092 223.856 269.393C222.69 269.719 221.524 270.025 220.343 270.313C211.563 272.473 202.578 273.691 193.54 273.947C192.321 273.985 191.093 274 189.86 274C189.248 274 188.646 273.995 188.035 273.99C187.848 273.99 187.662 273.985 187.475 273.98C186.935 273.966 186.376 273.956 185.812 273.942C174.907 273.601 164.09 271.859 153.628 268.757L153.183 268.627C152.495 268.417 151.812 268.211 151.128 267.991C147.974 266.99 144.867 265.869 141.805 264.629C139.468 263.686 137.159 262.674 134.876 261.594C134.855 261.588 134.836 261.578 134.819 261.565C134.341 261.345 133.858 261.115 133.38 260.88C133.318 260.847 133.251 260.813 133.184 260.78C131.402 259.908 129.638 258.995 127.894 258.041C126.427 254.665 124.363 254.019 123.082 251.05C122.709 250.168 122.44 249.246 122.279 248.302C122.279 248.292 122.274 248.283 122.274 248.269C122.408 250.05 121.706 245.108 122.27 248.249C122.265 248.192 122.26 248.13 122.255 248.058C122.241 247.885 122.222 247.675 122.193 247.411C120.554 231.376 120.659 213.038 119.947 197.927C119.899 196.95 119.85 196.015 119.799 195.121C119.785 194.824 119.766 194.532 119.746 194.245C119.78 194.159 119.818 194.068 119.861 193.982C119.87 193.957 119.881 193.933 119.895 193.91C119.909 193.88 119.925 193.851 119.942 193.824C119.952 193.809 119.966 193.79 119.976 193.776C119.983 193.759 119.991 193.743 120 193.728C120.043 193.661 120.091 193.589 120.143 193.522C120.167 193.493 120.186 193.469 120.21 193.445C120.226 193.421 120.246 193.398 120.267 193.378C120.282 193.355 120.3 193.334 120.32 193.316C120.339 193.297 120.358 193.273 120.382 193.249C120.392 193.234 120.405 193.221 120.42 193.211C120.458 193.167 120.5 193.127 120.544 193.091C120.715 192.934 120.897 192.79 121.089 192.66C121.156 192.617 121.228 192.574 121.295 192.526C121.776 192.237 122.283 191.994 122.81 191.798C122.991 191.731 123.173 191.669 123.369 191.602C123.44 191.583 123.507 191.559 123.579 191.535C123.684 191.501 123.789 191.468 123.899 191.444C124.444 191.281 125.032 191.142 125.667 191.013C125.744 190.999 125.825 190.984 125.906 190.965C126.021 190.941 126.14 190.922 126.26 190.903C126.422 190.874 126.59 190.845 126.757 190.817C128.176 190.592 129.787 190.424 131.564 190.314C131.732 190.304 131.899 190.295 132.066 190.285C132.262 190.276 132.458 190.266 132.659 190.257C132.826 190.247 132.998 190.242 133.17 190.237C133.337 190.228 133.509 190.223 133.686 190.218C134.169 190.204 134.666 190.189 135.172 190.18C136.615 190.151 138.135 190.161 139.731 190.194C140.472 190.213 141.227 190.233 142.001 190.266C142.054 190.266 142.101 190.271 142.149 190.271C142.823 190.295 143.502 190.324 144.199 190.362C144.687 190.386 145.179 190.41 145.671 190.438C146.135 190.467 146.603 190.496 147.076 190.529C147.444 190.549 147.812 190.577 148.185 190.601C148.5 190.625 148.815 190.649 149.131 190.668L149.561 190.697C149.795 190.716 150.029 190.731 150.268 190.754C150.794 190.798 151.32 190.841 151.855 190.884C152.385 190.932 152.925 190.98 153.465 191.027C154.005 191.075 154.55 191.128 155.095 191.181C155.152 191.185 155.205 191.19 155.257 191.195C155.754 191.248 156.251 191.296 156.753 191.348C156.868 191.358 156.987 191.367 157.102 191.382C157.58 191.43 158.068 191.486 158.551 191.538C158.699 191.554 158.846 191.569 158.995 191.585C159.373 191.627 159.746 191.662 160.127 191.707C160.628 191.765 161.14 191.817 161.637 191.884C162.024 191.928 162.411 191.971 162.798 192.019C163.405 192.09 164.021 192.167 164.638 192.248C164.872 192.277 165.106 192.306 165.34 192.339C167.099 192.56 168.877 192.804 170.683 193.058C173.421 193.445 176.202 193.867 179.003 194.322C181.808 194.776 184.629 195.257 187.466 195.763C188.183 195.892 188.899 196.021 189.621 196.155C189.946 196.218 190.271 196.28 190.596 196.342C191.15 196.443 191.704 196.548 192.259 196.653C192.813 196.759 193.368 196.864 193.922 196.974C194.581 197.103 195.246 197.233 195.905 197.362C200.249 198.224 204.569 199.143 208.784 200.106C209.477 200.264 210.17 200.426 210.858 200.584C212.234 200.905 213.597 201.231 214.948 201.561C215.321 201.647 215.689 201.738 216.057 201.829C216.974 202.059 217.892 202.289 218.795 202.523L218.953 202.567C219.617 202.729 220.267 202.897 220.917 203.069C222.451 203.472 223.959 203.879 225.442 204.29C226.427 204.563 227.4 204.839 228.362 205.119C229.801 205.535 231.21 205.957 232.582 206.383C232.921 206.488 233.26 206.593 233.595 206.694C234.598 207.005 235.588 207.321 236.548 207.637C237.313 207.886 238.058 208.14 238.794 208.394C239.53 208.647 240.252 208.901 240.959 209.155C241.413 209.318 241.862 209.49 242.311 209.653C242.956 209.892 243.592 210.132 244.213 210.371C244.404 210.443 244.591 210.52 244.777 210.591C244.897 210.644 245.011 210.687 245.126 210.735C245.351 210.826 245.58 210.912 245.8 211.003C246.024 211.089 246.244 211.18 246.464 211.276C246.679 211.362 246.899 211.453 247.109 211.544C247.324 211.63 247.534 211.721 247.745 211.817C247.921 211.889 248.094 211.966 248.261 212.042C248.6 212.191 248.939 212.339 249.269 212.492C249.432 212.569 249.594 212.641 249.757 212.717L250.129 212.89C250.182 212.918 250.234 212.942 250.287 212.966C250.406 213.024 250.531 213.086 250.65 213.143C250.927 213.273 251.2 213.412 251.467 213.541C251.826 213.723 252.175 213.905 252.509 214.082C252.848 214.264 253.178 214.446 253.493 214.623C253.546 214.652 253.594 214.68 253.646 214.709C253.718 214.747 253.79 214.79 253.861 214.829C254.105 214.968 254.339 215.111 254.573 215.25C255.032 215.533 255.467 215.81 255.873 216.088C255.964 216.15 256.05 216.212 256.141 216.27C256.442 216.485 256.729 216.696 256.996 216.912C256.996 216.916 256.996 216.916 257.001 216.916C257.092 216.983 257.178 217.055 257.264 217.122C257.336 217.189 257.412 217.247 257.484 217.314C257.732 217.529 257.962 217.735 258.172 217.946C258.242 218.011 258.309 218.08 258.373 218.152C258.4 218.175 258.426 218.2 258.449 218.228C258.545 218.324 258.631 218.42 258.712 218.516C258.724 218.529 258.736 218.543 258.745 218.559C258.86 218.693 258.965 218.827 259.065 218.961C259.113 219.028 259.166 219.095 259.209 219.162C259.266 219.243 259.324 219.33 259.371 219.411C259.414 219.478 259.453 219.55 259.491 219.617C259.592 219.789 259.679 219.97 259.749 220.158C259.803 220.285 259.846 220.416 259.878 220.55C259.914 220.678 259.941 220.807 259.959 220.938Z" fill="#2F2E41"/>
<path opacity="0.2" d="M259.959 220.938C259.954 221.776 259.945 222.949 259.907 224.4C259.902 224.601 259.892 224.807 259.888 225.018C259.84 227.053 259.768 229.566 259.668 232.406C259.663 232.578 259.658 232.746 259.649 232.918C259.515 236.385 259.305 240.421 258.941 246.813C258.268 258.62 257.092 248.436 255.912 252.578C252.633 250.557 249.04 248.441 245.198 246.267C244.505 245.875 243.805 245.48 243.1 245.084C235.416 240.79 226.833 236.289 217.873 231.831C217.519 231.654 217.161 231.477 216.807 231.304C196.283 221.139 173.88 211.252 155.73 204.654C152.228 203.381 148.882 202.231 145.738 201.221C139.115 199.1 133.39 197.616 128.984 196.974C124.396 196.304 121.228 196.543 119.947 197.927C119.899 196.95 119.85 196.015 119.799 195.121C119.78 194.824 119.761 194.532 119.742 194.245C119.771 194.166 119.81 194.091 119.847 194.015C119.852 194.004 119.856 193.993 119.861 193.982C119.87 193.957 119.882 193.933 119.895 193.91C119.909 193.88 119.925 193.851 119.942 193.824C119.958 193.79 119.977 193.758 120 193.728C120.043 193.661 120.091 193.589 120.143 193.522C120.182 193.472 120.223 193.424 120.267 193.378C120.282 193.355 120.3 193.334 120.32 193.316C120.339 193.297 120.358 193.273 120.382 193.249C120.392 193.234 120.405 193.221 120.42 193.211C120.458 193.167 120.5 193.127 120.545 193.091C120.715 192.934 120.897 192.79 121.089 192.66C121.156 192.617 121.228 192.574 121.295 192.526C121.776 192.237 122.283 191.994 122.81 191.798C122.991 191.731 123.173 191.669 123.369 191.602C123.44 191.583 123.507 191.559 123.579 191.535C123.684 191.501 123.789 191.468 123.899 191.444C124.444 191.281 125.032 191.142 125.667 191.013C125.858 190.975 126.059 190.936 126.26 190.903C126.422 190.874 126.59 190.845 126.757 190.817C128.176 190.592 129.787 190.424 131.564 190.314C131.732 190.304 131.899 190.295 132.066 190.285C132.262 190.276 132.458 190.266 132.659 190.256C132.826 190.247 132.998 190.242 133.17 190.237C133.337 190.228 133.509 190.223 133.686 190.218C134.169 190.204 134.666 190.189 135.172 190.18C136.615 190.156 138.135 190.166 139.731 190.199C140.472 190.213 141.227 190.237 142.001 190.271C142.049 190.271 142.101 190.276 142.149 190.276C142.823 190.295 143.506 190.328 144.199 190.362C144.687 190.386 145.179 190.41 145.671 190.438C146.135 190.467 146.603 190.496 147.076 190.529C147.444 190.549 147.812 190.577 148.185 190.601C148.5 190.625 148.815 190.649 149.131 190.668C149.508 190.697 149.886 190.726 150.268 190.754C150.794 190.798 151.32 190.841 151.855 190.884C152.385 190.932 152.925 190.979 153.465 191.027C154.005 191.075 154.55 191.128 155.095 191.181C155.152 191.185 155.205 191.19 155.257 191.195C155.754 191.248 156.251 191.295 156.753 191.348C159.534 191.631 162.397 191.961 165.34 192.339C167.099 192.564 168.88 192.805 170.683 193.062C173.421 193.45 176.202 193.871 179.003 194.322C181.808 194.776 184.629 195.257 187.466 195.763C188.183 195.892 188.899 196.021 189.621 196.155C190.5 196.318 191.38 196.484 192.259 196.653C192.813 196.759 193.368 196.864 193.922 196.974C194.581 197.103 195.246 197.233 195.905 197.362C200.249 198.224 204.569 199.143 208.784 200.106C209.477 200.263 210.17 200.426 210.858 200.584C212.234 200.905 213.598 201.231 214.948 201.561C215.321 201.652 215.689 201.743 216.057 201.834C216.979 202.064 217.892 202.294 218.795 202.523V202.528C218.848 202.538 218.9 202.552 218.953 202.567C219.612 202.734 220.267 202.902 220.917 203.074C222.451 203.476 223.959 203.882 225.442 204.29C226.427 204.568 227.402 204.841 228.362 205.119C229.801 205.54 231.21 205.961 232.582 206.383C232.921 206.488 233.26 206.593 233.595 206.694C234.598 207.01 235.583 207.324 236.548 207.637C237.313 207.886 238.058 208.14 238.794 208.394C239.53 208.647 240.252 208.901 240.959 209.155C241.418 209.318 241.867 209.485 242.311 209.648C242.961 209.887 243.592 210.127 244.213 210.371C244.404 210.443 244.591 210.52 244.777 210.591C245.126 210.725 245.465 210.864 245.8 211.003C246.024 211.089 246.244 211.18 246.464 211.276C246.679 211.362 246.899 211.453 247.109 211.544C247.324 211.63 247.534 211.721 247.745 211.817C247.922 211.889 248.094 211.966 248.261 212.042C248.6 212.191 248.939 212.339 249.269 212.492C249.432 212.569 249.594 212.641 249.757 212.717L250.129 212.89C250.182 212.918 250.234 212.942 250.287 212.966C250.693 213.158 251.085 213.349 251.467 213.541C251.826 213.723 252.175 213.905 252.509 214.082C252.906 214.292 253.283 214.498 253.646 214.709C253.718 214.747 253.79 214.79 253.862 214.829C254.105 214.968 254.339 215.111 254.574 215.25C255.032 215.533 255.467 215.81 255.873 216.088C256.275 216.366 256.648 216.639 256.996 216.912C256.996 216.916 256.996 216.916 257.001 216.916C257.168 217.05 257.331 217.184 257.484 217.314C257.732 217.529 257.962 217.735 258.172 217.946C258.242 218.011 258.309 218.08 258.373 218.152C258.4 218.175 258.426 218.2 258.449 218.228C258.549 218.338 258.65 218.449 258.745 218.559C258.86 218.693 258.965 218.827 259.066 218.961C259.113 219.028 259.166 219.095 259.209 219.162C259.266 219.243 259.324 219.33 259.371 219.411C259.414 219.478 259.453 219.55 259.491 219.617C259.592 219.789 259.679 219.97 259.749 220.158C259.801 220.285 259.844 220.417 259.878 220.55C259.914 220.678 259.941 220.807 259.959 220.938Z" fill="black"/>
</g>
<defs>
<clipPath id="clip0_109_241">
<rect width="376" height="274" fill="white"/>
</clipPath>
</defs>
</svg>
