<svg width="99" height="80" viewBox="0 0 99 80" fill="none" xmlns="http://www.w3.org/2000/svg">
<path d="M81.1385 10.9119C81.1132 10.8624 81.0713 10.8236 81.0203 10.8025C75.1231 8.06948 68.8999 6.12061 62.5063 5.00469C62.4483 4.99378 62.3882 5.00165 62.3348 5.02718C62.2814 5.0527 62.2374 5.09459 62.2089 5.14688C61.3615 6.70045 60.5922 8.29623 59.904 9.92813C53.0122 8.87138 46.0019 8.87138 39.11 9.92813C38.4173 8.29209 37.6357 6.69591 36.7688 5.14688C36.7391 5.09573 36.6948 5.0548 36.6417 5.02944C36.5886 5.00408 36.5292 4.99546 36.4712 5.00469C30.077 6.11827 23.8534 8.06728 17.957 10.8027C17.9065 10.8243 17.8639 10.8612 17.8351 10.9083C6.04341 28.6955 2.81322 46.0453 4.39784 63.1803C4.4023 63.2223 4.41507 63.263 4.4354 63.2999C4.45573 63.3368 4.4832 63.3692 4.51618 63.3952C11.3824 68.5304 19.0623 72.4502 27.2282 74.9872C27.2857 75.0046 27.3471 75.0038 27.4041 74.9849C27.4612 74.9661 27.5111 74.93 27.5473 74.8816C29.3011 72.4711 30.8552 69.9186 32.1936 67.25C32.212 67.2134 32.2225 67.1732 32.2244 67.1322C32.2264 67.0912 32.2197 67.0502 32.2048 67.012C32.1899 66.9738 32.1671 66.9393 32.138 66.9106C32.109 66.8819 32.0742 66.8597 32.036 66.8456C29.5854 65.8985 27.2129 64.7567 24.9408 63.4311C24.8995 63.4066 24.8649 63.3722 24.8399 63.3309C24.8149 63.2897 24.8003 63.2429 24.7975 63.1946C24.7947 63.1463 24.8037 63.0981 24.8237 63.0541C24.8437 63.0102 24.8741 62.9719 24.9122 62.9427C25.3889 62.5819 25.866 62.2066 26.3212 61.8275C26.3617 61.7939 26.4106 61.7723 26.4625 61.7652C26.5145 61.7581 26.5673 61.7659 26.6151 61.7875C41.5006 68.6495 57.6161 68.6495 72.3253 61.7875C72.3732 61.7645 72.4266 61.7557 72.4793 61.7621C72.532 61.7686 72.5818 61.79 72.6229 61.8239C73.0783 62.203 73.5552 62.5819 74.0355 62.9427C74.0738 62.9716 74.1045 63.0097 74.1248 63.0534C74.1451 63.0972 74.1545 63.1454 74.152 63.1936C74.1495 63.2419 74.1353 63.2888 74.1106 63.3302C74.0859 63.3717 74.0515 63.4063 74.0105 63.4311C71.7435 64.7679 69.3689 65.9089 66.9118 66.842C66.8737 66.8567 66.839 66.8793 66.8101 66.9085C66.7812 66.9376 66.7588 66.9725 66.7441 67.0111C66.7295 67.0496 66.7232 67.0908 66.7254 67.1319C66.7276 67.1731 66.7385 67.2133 66.7572 67.25C68.118 69.9037 69.6698 72.453 71.3999 74.8773C71.4351 74.9271 71.4848 74.9644 71.542 74.984C71.5993 75.0037 71.6612 75.0046 71.7191 74.9867C79.8996 72.4583 87.5929 68.5382 94.4677 63.3952C94.5012 63.3705 94.5291 63.3389 94.5495 63.3024C94.5699 63.266 94.5824 63.2256 94.5861 63.1839C96.4831 43.3741 91.41 26.1664 81.1385 10.9119ZM34.4166 52.7469C29.935 52.7469 26.2423 48.5927 26.2423 43.4908C26.2423 38.3889 29.8634 34.2344 34.4166 34.2344C39.0055 34.2344 42.6624 38.425 42.5908 43.4905C42.5908 48.5927 38.9696 52.7469 34.4166 52.7469ZM64.6395 52.7469C60.158 52.7469 56.4653 48.5927 56.4653 43.4908C56.4653 38.3889 60.0864 34.2344 64.6395 34.2344C69.2286 34.2344 72.8854 38.425 72.8138 43.4905C72.8138 48.5927 69.2286 52.7469 64.6395 52.7469Z" fill="#3B82F6"/>
</svg>
