<svg width="78" height="78" viewBox="0 0 78 78" fill="none" xmlns="http://www.w3.org/2000/svg">
<path d="M65 9.75H13C5.85 9.75 0 15.6 0 22.75V55.25C0 62.4 5.85 68.25 13 68.25H65C72.15 68.25 78 62.4 78 55.25V22.75C78 15.6 72.15 9.75 65 9.75ZM70.2 28.6L44.525 45.825C42.9 46.8 40.95 47.45 39 47.45C37.05 47.45 35.1 46.8 33.475 45.825L7.8 28.6C6.5 27.625 6.175 25.675 7.15 24.05C8.125 22.75 10.075 22.425 11.7 23.4L37.375 40.625C38.35 41.275 39.975 41.275 40.95 40.625L66.625 23.4C68.25 22.425 70.2 22.75 71.175 24.375C71.825 25.675 71.5 27.625 70.2 28.6Z" fill="#3B82F6"/>
</svg>
