<svg width="105" height="105" viewBox="0 0 105 105" fill="none" xmlns="http://www.w3.org/2000/svg">
<path fill-rule="evenodd" clip-rule="evenodd" d="M52.5 6.5625C27.1318 6.5625 6.5625 27.6445 6.5625 53.669C6.5625 74.4844 19.7285 92.1211 37.9805 98.3555C40.2773 98.7861 41.1182 97.3301 41.1182 96.0791C41.1182 94.9512 41.0771 91.9981 41.0566 88.0606C28.2803 90.9111 25.5732 81.7441 25.5732 81.7441C23.4814 76.3096 20.4668 74.8535 20.4668 74.8535C16.3037 71.9209 20.7744 71.9824 20.7744 71.9824C25.3887 72.3106 27.8086 76.8428 27.8086 76.8428C31.9102 84.041 38.5547 81.9697 41.1797 80.7598C41.5898 77.7246 42.7793 75.6328 44.0918 74.4639C33.8994 73.2744 23.1738 69.2344 23.1738 51.1875C23.1738 46.04 24.958 41.8359 27.8906 38.5547C27.4189 37.3652 25.8398 32.5664 28.3418 26.0859C28.3418 26.0859 32.1973 24.8145 40.9746 30.9053C44.6455 29.8594 48.5625 29.3467 52.4795 29.3262C56.376 29.3467 60.3135 29.8594 63.9844 30.9053C72.7617 24.8145 76.5967 26.0859 76.5967 26.0859C79.0986 32.5664 77.5195 37.3652 77.0479 38.5547C79.9805 41.8564 81.7646 46.0606 81.7646 51.1875C81.7646 69.2754 71.0186 73.2539 60.7852 74.4229C62.4258 75.8789 63.9023 78.75 63.9023 83.1387C63.9023 89.4346 63.8408 94.5205 63.8408 96.0586C63.8408 97.3096 64.6611 98.7861 66.999 98.3145C85.292 92.1006 98.4375 74.4639 98.4375 53.669C98.4375 27.6445 77.8682 6.5625 52.5 6.5625Z" fill="#3B82F6"/>
</svg>
