<svg width="75" height="75" viewBox="0 0 75 75" fill="none" xmlns="http://www.w3.org/2000/svg">
<path d="M66.9643 4.6875H8.03571C3.59933 4.6875 0 7.83691 0 11.7188V63.2812C0 67.1631 3.59933 70.3125 8.03571 70.3125H66.9643C71.4007 70.3125 75 67.1631 75 63.2812V11.7188C75 7.83691 71.4007 4.6875 66.9643 4.6875ZM40.8147 55.8691C40.8147 62.2559 36.529 65.1709 30.2846 65.1709C24.6429 65.1709 21.3783 62.6221 19.7042 59.5312L25.4464 56.499C26.5513 58.2129 27.5558 59.6631 29.9833 59.6631C32.2935 59.6631 33.7667 58.8721 33.7667 55.7812V34.8193H40.8147V55.8691ZM57.4888 65.1709C50.9431 65.1709 46.7076 62.4463 44.6484 58.8721L50.3906 55.9717C51.8973 58.125 53.8728 59.7217 57.3382 59.7217C60.2511 59.7217 62.1261 58.4473 62.1261 56.6748C62.1261 54.5654 60.2176 53.8184 56.9866 52.5732L55.2288 51.9141C50.1395 50.0244 46.7746 47.6367 46.7746 42.6123C46.7746 37.9834 50.8092 34.4678 57.0871 34.4678C61.5737 34.4678 64.7879 35.8301 67.0982 39.4043L61.6071 42.4805C60.4018 40.5908 59.096 39.8438 57.0703 39.8438C55.0112 39.8438 53.7054 40.9863 53.7054 42.4805C53.7054 44.3262 55.0112 45.0732 58.0413 46.2305L59.7991 46.8896C65.7924 49.1309 69.1574 51.4307 69.1574 56.5869C69.1574 62.124 64.1685 65.1709 57.4888 65.1709Z" fill="#3B82F6"/>
</svg>
