<svg width="75" height="75" viewBox="0 0 75 75" fill="none" xmlns="http://www.w3.org/2000/svg">
<path d="M53.6876 29.7437C49.7407 12.3687 40.4313 6.65938 39.4313 4.475C38.3313 2.93438 37.1407 0 37.1407 0C37.1344 0.059375 37.1282 0.096875 37.1251 0.153125V0.19375H37.1219C37.1157 0.240625 37.1126 0.271875 37.1094 0.315625V0.3625H37.1032C37.1032 0.39375 37.0969 0.41875 37.0969 0.44375V0.525H37.0876C37.0844 0.55 37.0844 0.58125 37.0782 0.603125V0.66875H37.0719C37.0719 0.690625 37.0719 0.715625 37.0657 0.734375V0.796875H37.0594C37.0594 0.828125 37.0563 0.865625 37.0532 0.896875V0.903125C37.0438 0.95625 37.0344 1.00937 37.0251 1.05937V1.08438H37.0188C37.0157 1.09687 37.0094 1.10938 37.0094 1.12188V1.175H37.0001V1.24375H36.9844V1.3H36.9688V1.36563H36.9563V1.425H36.9438V1.47812H36.9251V1.52187H36.9126V1.57812H36.9001V1.62187H36.8844V1.6625H36.8751V1.70938H36.8626C36.8594 1.7125 36.8594 1.71875 36.8594 1.72187V1.75312H36.8501C36.8469 1.75937 36.8469 1.76562 36.8469 1.77187V1.79063H36.8407C36.8376 1.8 36.8344 1.81563 36.8344 1.82187C36.8251 1.84375 36.8126 1.86562 36.8032 1.8875V1.89375C36.7969 1.9 36.7907 1.90937 36.7876 1.91562V1.94062H36.7751V1.96563H36.7594V1.99063H36.7501V2.02188H36.7313V2.06562H36.7188V2.07812H36.7063V2.10312H36.6938V2.1375H36.6813V2.1625H36.6626V2.19688H36.6501V2.22188H36.6344V2.24688H36.6251V2.27812H36.6094V2.30312H36.5969V2.32187H36.5844V2.34687H36.5657V2.375H36.5532V2.39375H36.5376V2.41875H36.5251V2.45312H36.5094V2.46562H36.5001V2.49062H36.4813V2.50312H36.4688V2.53437H36.4563V2.54688H36.4438V2.57188H36.4282V2.59063H36.4188L36.4126 2.60313V2.61563H36.4063C36.4032 2.62188 36.4001 2.62188 36.4001 2.62812L36.3969 2.63125C36.3938 2.64062 36.3907 2.64687 36.3844 2.65312V2.6625C36.3688 2.68125 36.3563 2.7 36.3438 2.71875C36.3376 2.725 36.3219 2.74062 36.3157 2.75312V2.75938H36.3126C36.3094 2.7625 36.3032 2.76562 36.3032 2.76875V2.77813H36.2969L36.2876 2.7875L36.2844 2.79063C36.2844 2.79375 36.2782 2.79688 36.2751 2.80313V2.81563H36.2657L36.2594 2.82188V2.82812H36.2532C36.2532 2.83437 36.2469 2.83437 36.2469 2.8375V2.84687H36.2344C36.2344 2.85 36.2313 2.85312 36.2282 2.85625V2.875H36.2188V2.8875H36.2063V2.90625H36.1938V2.93125H36.1782V2.90625H36.1626V2.91875H36.1501V2.9375H36.1344V2.9625H36.1188V2.975H36.1063V2.99375H36.0938V3.00625H36.0813V3.03125H36.0626V3.04375H36.0501V3.0625H36.0344V3.075H36.0219V3.09063H36.0063V3.12188H36.0001V3.13438H35.9813V3.15H35.9688V3.15625H35.9563V3.16875H35.9407V3.2H35.9282V3.2125H35.9126V3.225H35.9001V3.24375H35.8844V3.25625H35.8688V3.26875H35.8563V3.28125H35.8438V3.3125H35.8313V3.32813H35.8126V3.34063H35.8001V3.35312H35.7844V3.37188H35.7719V3.38437H35.7563V3.40625H35.7438V3.41875H35.7251V3.4375H35.7188V3.45H35.7063V3.4625H35.6907V3.475H35.6782V3.49375H35.6626V3.50625H35.6532C35.6501 3.50937 35.6501 3.5125 35.6501 3.5125V3.51875H35.6438L35.6313 3.53125C35.6313 3.53125 35.6251 3.5375 35.6188 3.54063V3.55938H35.6063V3.575H35.5938V3.5875H35.5813V3.6H35.5719L35.5626 3.60938V3.61875H35.5563L35.5501 3.625V3.63437H35.5438C35.5282 3.65313 35.5219 3.66563 35.5001 3.68438C35.4938 3.69062 35.4751 3.70625 35.4626 3.71563C35.4251 3.74063 35.3782 3.78125 35.3407 3.81562C35.3157 3.83125 35.2907 3.85313 35.2719 3.86875L35.2688 3.87187C35.2188 3.9125 35.1719 3.95 35.1157 3.99375V3.99688C35.0407 4.05938 34.9688 4.11875 34.8844 4.19062L34.8782 4.1875C34.7001 4.33437 34.5126 4.5 34.2969 4.68437V4.6875H34.2938C33.7657 5.15 33.1376 5.74375 32.4344 6.4625L32.3876 6.50937L32.3751 6.52187C28.1251 10.9187 21.4282 20.0812 20.7219 34.8875C20.6594 36.1125 20.6719 37.3031 20.7407 38.4625V38.4906C21.0813 44.325 22.9126 49.3063 25.2032 53.3531C26.1157 54.9656 27.1001 56.4344 28.0969 57.7469C31.5407 62.2938 35.0563 64.9906 35.9532 65.6438C37.3313 68.8406 37.2032 74.3281 37.2032 74.3281L39.2157 75C39.2157 75 38.8063 69.6844 39.3813 67.1188C39.5594 66.3156 39.9813 65.6312 40.4719 65.05C40.8032 64.8156 41.7844 64.1094 42.9626 63.0344C43.0188 62.975 43.0501 62.9219 43.1001 62.8656C47.8532 58.4344 56.7313 47.5219 53.6876 29.7437Z" fill="#3B82F6"/>
</svg>
