<svg width="75" height="75" viewBox="0 0 75 75" fill="none" xmlns="http://www.w3.org/2000/svg">
<g clip-path="url(#clip0_183_267)">
<path d="M37.5 74.4141C36.3784 74.4141 35.24 74.1504 34.2522 73.6524L23.923 68.3057C22.3828 67.544 23.1362 67.2803 23.6384 67.1338C25.6975 66.5039 26.1161 66.3721 28.3092 65.2734C28.5435 65.1563 28.8449 65.2002 29.0792 65.332L37.0145 69.4482C37.2991 69.5947 37.7009 69.5947 37.9688 69.4482L68.8895 53.833C69.1741 53.6865 69.3583 53.3936 69.3583 53.1006V21.8701C69.3583 21.5625 69.1741 21.2842 68.8728 21.123L37.9688 5.52246C37.6842 5.37598 37.2991 5.37598 37.0145 5.52246L6.12723 21.1377C5.82589 21.2842 5.64174 21.5771 5.64174 21.8848V53.1006C5.64174 53.3936 5.82589 53.6865 6.12723 53.8184L14.5982 58.0957C19.202 60.1025 22.0145 57.7441 22.0145 55.3565V24.5361C22.0145 24.0967 22.4163 23.7598 22.9185 23.7598H26.8359C27.3214 23.7598 27.74 24.0967 27.74 24.5361V55.3711C27.74 60.7324 24.3917 63.8086 18.5826 63.8086C16.7913 63.8086 15.385 63.8086 11.4676 62.1094L3.36496 58.0225C1.35603 57.0117 0.117188 55.1221 0.117188 53.0859V21.8701C0.117188 19.8486 1.35603 17.9443 3.36496 16.9336L34.2522 1.31836C36.2109 0.351562 38.8058 0.351562 40.7478 1.31836L71.6685 16.9482C73.6775 17.959 74.9163 19.8486 74.9163 21.8848V53.1006C74.9163 55.1221 73.6775 57.0117 71.6685 58.0371L40.7478 73.6524C39.76 74.1504 38.6384 74.4141 37.5 74.4141ZM62.4609 43.6377C62.4609 37.793 57.9408 36.2402 48.4487 35.1416C38.8393 34.0283 37.8683 33.457 37.8683 31.4941C37.8683 29.8682 38.6886 27.7002 45.8036 27.7002C52.1484 27.7002 54.4922 28.9014 55.4632 32.6514C55.5469 33.0029 55.9152 33.2666 56.3337 33.2666H60.3516C60.6027 33.2666 60.8371 33.1787 61.0045 33.0176C61.1719 32.8564 61.2556 32.6367 61.2388 32.417C60.6194 25.957 55.7143 22.9541 45.8036 22.9541C36.981 22.9541 31.7243 26.2061 31.7243 31.6699C31.7243 37.5879 36.9643 39.2285 45.4185 39.9609C55.5469 40.8252 56.3337 42.1289 56.3337 43.8721C56.3337 46.8897 53.5547 48.1787 47.0424 48.1787C38.856 48.1787 37.0647 46.377 36.4621 42.8174C36.3951 42.4365 36.0268 42.1582 35.5748 42.1582H31.5737C31.0714 42.1582 30.6864 42.5098 30.6864 42.9346C30.6864 47.4902 33.5156 52.9248 47.0592 52.9248C56.8359 52.9102 62.4609 49.5264 62.4609 43.6377Z" fill="#3B82F6"/>
</g>
<defs>
<clipPath id="clip0_183_267">
<rect width="75" height="75" fill="white"/>
</clipPath>
</defs>
</svg>
