<svg width="75" height="75" viewBox="0 0 75 75" fill="none" xmlns="http://www.w3.org/2000/svg">
<path d="M37.5 30.8156C36.6222 30.8156 35.753 30.9885 34.942 31.3244C34.131 31.6604 33.3941 32.1527 32.7734 32.7734C32.1527 33.3941 31.6604 34.131 31.3244 34.942C30.9885 35.753 30.8156 36.6222 30.8156 37.5C30.8156 38.3778 30.9885 39.247 31.3244 40.058C31.6604 40.869 32.1527 41.6059 32.7734 42.2266C33.3941 42.8473 34.131 43.3396 34.942 43.6755C35.753 44.0115 36.6222 44.1844 37.5 44.1844C38.3778 44.1844 39.247 44.0115 40.058 43.6755C40.869 43.3396 41.6059 42.8473 42.2266 42.2266C42.8473 41.6059 43.3396 40.869 43.6756 40.058C44.0115 39.247 44.1844 38.3778 44.1844 37.5C44.1844 36.6222 44.0115 35.753 43.6756 34.942C43.3396 34.131 42.8473 33.3941 42.2266 32.7734C41.6059 32.1527 40.869 31.6604 40.058 31.3244C39.247 30.9885 38.3778 30.8156 37.5 30.8156ZM18.775 50.7969L17.3 50.4219C6.30625 47.6437 0 42.9281 0 37.4875C0 32.0469 6.30625 27.3312 17.3 24.5531L18.775 24.1812L19.1906 25.6437C20.3043 29.4803 21.7288 33.2198 23.45 36.825L23.7656 37.4906L23.45 38.1562C21.726 41.7602 20.3014 45.4999 19.1906 49.3375L18.775 50.7969ZM16.6156 27.9687C8.25937 30.3156 3.13125 33.9062 3.13125 37.4875C3.13125 41.0656 8.25937 44.6562 16.6156 47.0062C17.6376 43.756 18.8715 40.5763 20.3094 37.4875C18.8698 34.3994 17.6359 31.2195 16.6156 27.9687ZM56.225 50.7969L55.8094 49.3312C54.6968 45.4948 53.2712 41.7562 51.5469 38.1531L51.2312 37.4875L51.5469 36.8219C53.2705 33.2174 54.6961 29.4778 55.8094 25.6406L56.225 24.1781L57.7031 24.55C68.6937 27.3281 75 32.0437 75 37.4875C75 42.9312 68.6937 47.6437 57.7031 50.4219L56.225 50.7969ZM54.6906 37.4875C56.1906 40.7344 57.4313 43.925 58.3844 47.0062C66.7438 44.6562 71.8687 41.0656 71.8687 37.4875C71.8687 33.9062 66.7406 30.3187 58.3844 27.9687C57.3638 31.2194 56.1299 34.3993 54.6906 37.4875ZM16.5938 27.9531L16.1781 26.4937C13.0875 15.6 14.025 7.79374 18.75 5.06874C23.3844 2.39374 30.825 5.55311 38.6219 13.5562L39.6844 14.6469L38.6219 15.7375C35.8514 18.6175 33.3201 21.7184 31.0531 25.0094L30.6313 25.6125L29.8969 25.675C25.9091 25.9894 21.9534 26.6269 18.0688 27.5812L16.5938 27.9531ZM22.5187 7.23436C21.6812 7.23436 20.9406 7.41561 20.3156 7.77499C17.2094 9.56561 16.6594 15.7906 18.8 24.1906C22.1301 23.4498 25.505 22.9268 28.9031 22.625C30.8638 19.8371 33.006 17.1814 35.3156 14.675C30.4406 9.92811 25.825 7.23436 22.5187 7.23436ZM52.4844 70.8656C52.4813 70.8656 52.4813 70.8656 52.4844 70.8656C48.0312 70.8656 42.3125 67.5125 36.3781 61.4187L35.3156 60.3281L36.3781 59.2375C39.1479 56.3566 41.6781 53.2546 43.9438 49.9625L44.3656 49.3594L45.0969 49.2969C49.0867 48.9842 53.0445 48.3478 56.9313 47.3937L58.4062 47.0219L58.825 48.4844C61.9094 59.3719 60.975 67.1812 56.25 69.9031C55.1023 70.552 53.8027 70.8842 52.4844 70.8656ZM39.6844 60.3C44.5594 65.0469 49.175 67.7406 52.4813 67.7406C53.3156 67.7406 54.0625 67.5594 54.6844 67.2C57.7906 65.4094 58.3437 59.1812 56.2 50.7812C52.869 51.5231 49.4931 52.0461 46.0938 52.3469C44.1354 55.1367 41.9943 57.7935 39.6844 60.3ZM58.4062 27.9531L56.9313 27.5812C53.0451 26.6241 49.0871 25.9866 45.0969 25.675L44.3656 25.6125L43.9438 25.0094C41.6793 21.7174 39.1489 18.6164 36.3781 15.7375L35.3156 14.6469L36.3781 13.5562C44.1719 5.55624 51.6094 2.39686 56.25 5.06874C60.975 7.79374 61.9125 15.6 58.825 26.4906L58.4062 27.9531ZM46.0938 22.625C49.6625 22.95 53.0531 23.4781 56.2 24.1906C58.3437 15.7906 57.7906 9.56561 54.6844 7.77499C51.5969 5.99061 45.7938 8.72499 39.6844 14.675C41.993 17.1815 44.134 19.8372 46.0938 22.625ZM22.5187 70.8656C21.1994 70.8848 19.8986 70.5526 18.75 69.9031C14.025 67.1812 13.0875 59.375 16.1781 48.4844L16.5906 47.0219L18.0656 47.3937C21.675 48.3031 25.6562 48.9437 29.8937 49.2969L30.6281 49.3594L31.0469 49.9625C33.3142 53.2542 35.8455 56.3561 38.6156 59.2375L39.6781 60.3281L38.6156 61.4187C32.6844 67.5125 26.9656 70.8656 22.5187 70.8656ZM18.8 50.7812C16.6562 59.1812 17.2094 65.4094 20.3156 67.2C23.4 68.9594 29.2 66.2469 35.3156 60.3C33.0069 57.7917 30.8648 55.135 28.9031 52.3469C25.5048 52.0464 22.1299 51.5234 18.8 50.7812ZM37.5 52.7437C34.9281 52.7437 32.2844 52.6312 29.6375 52.4125L28.9031 52.35L28.4813 51.7469C26.9841 49.5956 25.5766 47.3833 24.2625 45.1156C22.9523 42.8461 21.7366 40.5233 20.6187 38.1531L20.3094 37.4875L20.6187 36.8219C21.7365 34.4516 22.9521 32.1288 24.2625 29.8594C25.5562 27.6219 26.9781 25.3906 28.4813 23.2281L28.9031 22.625L29.6375 22.5625C34.8708 22.1187 40.1323 22.1187 45.3656 22.5625L46.0969 22.625L46.5156 23.2281C49.513 27.5314 52.1441 32.0786 54.3813 36.8219L54.6969 37.4875L54.3813 38.1531C52.1495 42.8992 49.5181 47.4468 46.5156 51.7469L46.0969 52.35L45.3656 52.4125C42.7188 52.6312 40.0719 52.7437 37.5 52.7437ZM30.6344 49.3562C35.2594 49.7031 39.7406 49.7031 44.3688 49.3562C46.9526 45.5789 49.2466 41.6113 51.2312 37.4875C49.2502 33.3612 46.9549 29.3932 44.3656 25.6187C39.7951 25.2719 35.2049 25.2719 30.6344 25.6187C28.044 29.3925 25.7486 33.3606 23.7687 37.4875C25.7555 41.6108 28.0506 45.5783 30.6344 49.3562Z" fill="#3B82F6"/>
</svg>
