<svg width="75" height="75" viewBox="0 0 75 75" fill="none" xmlns="http://www.w3.org/2000/svg">
<g clip-path="url(#clip0_183_259)">
<path fill-rule="evenodd" clip-rule="evenodd" d="M0 0H75V75H0V0ZM50 30C44.4771 30 40 34.4771 40 40C40 45.5229 44.4771 50 50 50H55C57.7615 50 60 52.2385 60 55C60 57.7615 57.7615 60 55 60H50C47.2386 60 45 57.7615 45 55H40C40 60.523 44.4771 65 50 65H55C60.523 65 65 60.523 65 55C65 49.4771 60.523 45 55 45H50C47.2386 45 45 42.7614 45 40C45 37.2386 47.2386 35 50 35H55.8335C58.1345 35 60 36.8655 60 39.1666V40H65V39.1666C65 34.104 60.896 30 55.8335 30H50ZM15 30H40V35H30V65H25V35H15V30Z" fill="#3B82F6"/>
</g>
<defs>
<clipPath id="clip0_183_259">
<rect width="75" height="75" fill="white"/>
</clipPath>
</defs>
</svg>
